<svg width="80" height="80" viewBox="0 0 80 80" fill="none" xmlns="http://www.w3.org/2000/svg">
<path d="M66.6667 16.6667H13.3333V63.3333L44.3067 32.3533C44.9318 31.7284 45.7794 31.3774 46.6633 31.3774C47.5472 31.3774 48.3949 31.7284 49.02 32.3533L66.6667 50.0333V16.6667ZM6.66666 13.31C6.67276 12.4346 7.02299 11.5967 7.6417 10.9774C8.26041 10.3581 9.09792 10.007 9.97332 10H70.0267C71.8533 10 73.3333 11.4833 73.3333 13.31V66.69C73.3272 67.5654 72.977 68.4033 72.3583 69.0226C71.7396 69.6419 70.9021 69.993 70.0267 70H9.97332C9.09603 69.9991 8.25498 69.65 7.63495 69.0293C7.01493 68.4087 6.66666 67.5673 6.66666 66.69V13.31ZM26.6667 36.6667C24.8985 36.6667 23.2029 35.9643 21.9526 34.714C20.7024 33.4638 20 31.7681 20 30C20 28.2319 20.7024 26.5362 21.9526 25.286C23.2029 24.0357 24.8985 23.3333 26.6667 23.3333C28.4348 23.3333 30.1305 24.0357 31.3807 25.286C32.6309 26.5362 33.3333 28.2319 33.3333 30C33.3333 31.7681 32.6309 33.4638 31.3807 34.714C30.1305 35.9643 28.4348 36.6667 26.6667 36.6667Z" fill="#C8C8C8"/>
</svg>
